{"title":"A Viking Saga The Darkest Day 2013 BRRip 480p x264 - VYTO [P2PDL","uid":8616815,"size":296589494,"categoryP":"video","categoryS":"movies","magnet":"?xt=urn:btih:a00b2c492c88ab0791d08ca72fa07abd2e675a1f&amp;dn=A+Viking+Saga+The+Darkest+Day+2013+BRRip+480p+x264+-+VYTO+%5BP2PDL&amp;tr=udp%3A%2F%2Ftracker.openbittorrent.com%3A80&amp;tr=udp%3A%2F%2Fopen.demonii.com%3A1337&amp;tr=udp%3A%2F%2Ftracker.coppersurfer.tk%3A6969&amp;tr=udp%3A%2F%2Fexodus.desync.com%3A6969","seeders":1,"leechers":0,"uploader":"ValidusVyto","files":-1,"time":1372274334,"description":"_______ Visit us at our Semi Public Bittorrent Community ________\n  &lt;a href=&quot;\nhttp://p2pdl.com&quot; rel=&quot;nofollow&quot; target=&quot;_NEW&quot;&gt;\nhttp://p2pdl.com&lt;/a&gt;  _____________________________ &lt;a href=&quot; http://p2pdl.com&quot; rel=&quot;nofollow&quot; target=&quot;_NEW&quot;&gt; http://p2pdl.com&lt;/a&gt;\n\n\nA Viking Saga The Darkest Day 2013 BRRip 480p x264 - VYTO\n\n\nPlot: Inspired by true events. Cast into a violent and bloody world of murder,\nHereward, a novice monk, must deliver the Holy Gospel of Lindisfarne - a book of\ngreat beauty and power \nDirector: Chris Crow\nStars: Gareth John Bale, Ian Dicks, Richard Elfyn.\nRated: R for violence, some graphic nudity and brief language.\n\nInfo: &lt;a href=&quot;\nhttp://www.imdb.com/title/tt2320073/&quot; rel=&quot;nofollow&quot; target=&quot;_NEW&quot;&gt;\nhttp://www.imdb.com/title/tt2320073/&lt;/a&gt;\n\nTrailer:\n\n\nFormat                         : MPEG-4\nFile size                      : 276 MiB\nDuration                       : 1h 49mn\nOverall bit rate               : 352 Kbps\nSource                         : BluRay.720p.DTS.x264-HDWinG\n\nVideo\nFormat                         : AVC\nBit rate                       : 401 Kbps\nWidth                          : 720 pixels\nHeight                         : 304 pixels\nDisplay aspect ratio           : 2.35:1\nFrame rate mode                : Constant\nFrame rate                     : 25.000 fps\nStream size                    : 249 MiB (90%)\nWriting library                : x264 core 130 r2273\n\nAudio\nFormat                         : AAC\nBit rate mode                  : Variable\nBit rate                       : 32.3 Kbps\nChannel(s)                     : 2 channels\nChannel positions              : Front: L R\nSampling rate                  : 48.0 KHz\nStream size                    : 25.4 MiB (9%)\nLanguage                       : English\n\nSubtitle                       : N/a\n\n\n----------------------------------------------------------------------------------------------------\n\n\nEncoded using revolutionary 10bit encoding, which enables us to provide you more crispier \nand sharper images at small sizes, just make sure you follow our instructions without a fault.\nRecommend to you to use latest version of VLC player. Install K-Lite Codec Pack or shark007 codecs\nin case of any kind of problem in playback (For non-VLC Media Player users). Alternatively, install\nCore AVC codecs, the fastest decoder that there is coupled with Community Center Codec Pack and play\non Windows Media Player Classic. Check sample to be sure.\nEnjoy!\n\nEncoder Notes:Looking For Early Access To Anything You Can Provide DVDScr, R5, DVDR, BluRay, Direct\nAudio, Music Releases and Seedboxes. We require dedicated servers, so as to do more \nand fast releases of movies.\nIf You Got anything to offer please contact us at &quot;&lt;a class=&quot;__cf_email__&quot; href=&quot;/cdn-cgi/l/email-protection&quot; data-cfemail=&quot;8be8e4e5ffeae8ffcbfbb9fbefe7a5e8e4e6&quot;&gt;[email&amp;#160;protected]&lt;/a&gt;&lt;script cf-hash='f9e31' type=&quot;text/javascript&quot;&gt;\n/* &lt;![CDATA[ */!function(){try{var t=&quot;currentScript&quot;in document?document.currentScript:function(){for(var t=document.getElementsByTagName(&quot;script&quot;),e=t.length;e--;)if(t[e].getAttribute(&quot;cf-hash&quot;))return t[e]}();if(t&amp;&amp;t.previousSibling){var e,r,n,i,c=t.previousSibling,a=c.getAttribute(&quot;data-cfemail&quot;);if(a){for(e=&quot;&quot;,r=parseInt(a.substr(0,2),16),n=2;a.length-n;n+=2)i=parseInt(a.substr(n,2),16)^r,e+=String.fromCharCode(i);e=document.createTextNode(e),c.parentNode.replaceChild(e,c)}}}catch(u){}}();/* ]]&gt; */&lt;/script&gt;&quot;.\n\nFace book Fan Page:   &lt;a href=&quot;\nhttp://fbl.me/BC&quot; rel=&quot;nofollow&quot; target=&quot;_NEW&quot;&gt;\nhttp://fbl.me/BC&lt;/a&gt;","torrent":{"xt":"urn:btih:a00b2c492c88ab0791d08ca72fa07abd2e675a1f","amp;dn":"A+Viking+Saga+The+Darkest+Day+2013+BRRip+480p+x264+-+VYTO+%5BP2PDL","amp;tr":["udp%3A%2F%2Ftracker.openbittorrent.com%3A80","udp%3A%2F%2Fopen.demonii.com%3A1337","udp%3A%2F%2Ftracker.coppersurfer.tk%3A6969","udp%3A%2F%2Fexodus.desync.com%3A6969"],"infoHash":"a00b2c492c88ab0791d08ca72fa07abd2e675a1f","infoHashBuffer":{"type":"Buffer","data":[160,11,44,73,44,136,171,7,145,208,140,167,47,160,122,189,46,103,90,31]},"announce":[],"urlList":[]}}